<?xml version="1.0" standalone="no"?>
<!DOCTYPE svg PUBLIC "-//W3C//DTD SVG 20010904//EN"
 "http://www.w3.org/TR/2001/REC-SVG-20010904/DTD/svg10.dtd">
<svg version="1.0" xmlns="http://www.w3.org/2000/svg"
 width="300.000000pt" height="300.000000pt" viewBox="0 0 300.000000 300.000000"
 preserveAspectRatio="xMidYMid meet">
<metadata>
Created by potrace 1.11, written by Peter Selinger 2001-2013
</metadata>
<g transform="translate(0.000000,300.000000) scale(0.100000,-0.100000)"
fill="#000000" stroke="none">
<path d="M848 2940 c-20 -48 -33 -50 -56 -10 -9 16 -21 30 -25 30 -13 0 3 -43
26 -68 11 -12 21 -36 21 -54 1 -45 26 -49 26 -4 0 21 10 50 25 72 14 20 25 45
25 55 0 33 -24 20 -42 -21z"/>
<path d="M631 2952 c-8 -16 -14 -72 -12 -114 1 -24 17 -23 24 2 3 13 14 20 30
20 19 0 27 -9 40 -42 13 -32 20 -39 28 -31 9 9 6 25 -11 65 -46 110 -77 141
-99 100z m32 -65 c-20 -12 -25 -4 -17 28 l7 28 13 -24 c10 -20 10 -25 -3 -32z"/>
<path d="M1396 2948 c-15 -21 -16 -21 -29 -4 -8 11 -19 16 -25 12 -15 -9 -16
-116 -2 -116 6 0 10 17 10 38 l0 37 19 -24 c21 -28 41 -21 41 15 0 39 17 27
29 -21 7 -28 17 -45 26 -45 20 0 19 9 -6 75 -22 59 -39 68 -63 33z"/>
<path d="M350 2938 c-28 -30 -25 -54 10 -86 22 -20 28 -33 24 -50 -7 -24 5
-29 24 -10 20 20 14 40 -20 75 -26 27 -30 37 -22 51 6 9 21 18 33 20 12 2 19
8 16 13 -11 16 -44 10 -65 -13z"/>
<path d="M1537 2942 c-38 -42 -9 -122 44 -122 37 0 40 27 2 32 -36 4 -43 28
-8 28 32 0 29 23 -3 28 -28 4 -29 22 -2 29 11 3 20 9 20 14 0 16 -36 9 -53 -9z"/>
<path d="M1016 2916 c-4 -18 -4 -40 -2 -47 2 -8 7 -26 10 -41 9 -41 29 -35 24
7 -3 27 0 35 12 35 8 0 25 3 38 6 19 6 22 3 22 -25 0 -31 13 -41 25 -20 10 15
-4 119 -16 119 -5 0 -9 -11 -9 -25 0 -20 -5 -25 -24 -25 -13 0 -31 -3 -40 -6
-13 -5 -16 1 -16 25 0 41 -16 40 -24 -3z"/>
<path d="M1196 2924 c-25 -64 22 -132 62 -92 16 16 16 80 0 96 -17 17 -55 15
-62 -4z m44 -24 c11 -21 5 -60 -10 -60 -9 0 -20 61 -13 73 7 11 11 9 23 -13z"/>
<path d="M487 2903 c-9 -2 -15 -8 -12 -13 3 -4 14 -6 25 -3 16 4 20 0 20 -18
0 -41 12 -69 27 -69 11 0 14 6 9 23 -18 66 -18 67 -2 67 9 0 16 5 16 10 0 10
-49 12 -83 3z"/>
<path d="M370 1551 c0 -633 4 -1152 9 -1155 4 -3 207 -6 450 -6 l441 -1 0 -43
c0 -51 17 -150 32 -188 9 -25 7 -31 -22 -58 -23 -22 -31 -36 -28 -57 l3 -28
194 0 194 0 28 55 c28 53 58 140 79 227 15 61 48 77 125 61 49 -11 67 -10 143
9 84 21 92 21 217 8 176 -19 297 -19 342 0 19 8 50 15 68 15 31 0 33 2 38 43
2 23 12 62 21 85 22 59 23 237 1 309 -15 52 -15 54 7 84 19 26 23 43 23 107 0
64 -5 86 -28 129 l-27 52 0 751 0 750 -1155 0 -1155 0 0 -1149z m760 563 l0
-554 -365 0 -365 0 0 555 0 555 273 2 c149 2 314 2 365 0 l92 -3 0 -555z m770
253 l0 -304 -72 -64 c-87 -78 -102 -89 -136 -98 -37 -10 -39 -30 -3 -42 26 -9
30 -15 25 -33 -14 -42 -24 -91 -24 -119 0 -16 -7 -35 -16 -44 -26 -26 -14 -66
26 -85 34 -18 28 -18 -252 -18 l-288 0 0 555 0 555 370 0 370 0 0 -303z m750
231 c1 -61 1 -811 0 -985 l0 -53 -32 0 -33 0 4 62 c3 35 5 108 5 163 0 91 -3
105 -29 158 -30 61 -83 107 -148 129 -17 6 -41 19 -52 28 -69 61 -310 65 -399
6 -35 -22 -42 -20 -40 12 1 15 3 145 3 290 l1 262 360 0 360 0 0 -72z m-736
-751 c8 -32 74 -62 117 -53 26 5 36 1 56 -20 23 -25 29 -26 90 -21 58 4 68 2
83 -15 18 -23 90 -40 136 -32 25 5 37 0 57 -20 20 -20 33 -25 52 -20 34 8 55
-11 55 -51 0 -54 -27 -77 -96 -83 -50 -4 -65 -10 -98 -39 -87 -79 -226 -115
-353 -93 -40 6 -73 16 -73 21 0 5 5 9 12 9 21 0 78 63 78 87 0 31 -18 29 -30
-2 -12 -31 -66 -65 -103 -65 -31 0 -109 65 -133 112 -8 15 -20 28 -27 28 -7 0
-22 7 -34 15 -23 16 -21 45 3 45 8 0 14 3 15 8 0 4 2 28 4 55 1 26 8 67 15 92
13 45 13 45 59 46 25 1 57 5 71 9 37 12 37 12 44 -13z m-782 -579 c2 -203 0
-270 -11 -298 -18 -46 -20 -205 -3 -221 8 -9 12 -58 12 -171 l0 -158 -52 -1
c-102 -1 -255 -1 -465 0 l-213 1 0 555 0 555 365 0 364 0 3 -262z m640 231
c12 -16 45 -45 73 -64 l51 -33 -1 -219 0 -218 -26 -27 c-15 -16 -31 -28 -38
-28 -6 0 -28 -16 -50 -35 l-38 -35 -5 68 c-7 81 -48 187 -96 243 -72 83 -201
118 -316 85 -46 -14 -70 -29 -112 -71 l-54 -54 0 210 0 209 295 0 294 0 23
-31z m880 -114 c2 -80 2 -145 0 -145 -1 0 -30 29 -63 65 -55 58 -173 145 -199
145 -17 0 -11 14 13 30 12 8 39 15 60 17 22 2 51 9 65 17 15 8 48 14 74 15
l47 1 3 -145z m-223 8 c133 -79 270 -259 276 -362 3 -52 -21 -116 -53 -144
-42 -38 -171 -63 -187 -37 -3 6 3 10 14 10 28 0 27 18 -1 22 -26 4 -44 54 -22
62 24 9 16 28 -8 20 -13 -3 -20 -3 -16 1 12 12 -20 78 -50 102 l-27 23 47 0
c25 0 69 -5 97 -12 55 -12 74 -6 50 17 -23 22 -107 32 -235 28 -128 -5 -197
-20 -244 -53 -35 -25 -34 -27 -15 70 28 134 65 218 103 225 61 13 109 28 142
46 48 25 57 24 129 -18z m-351 -33 l22 0 -18 -37 c-27 -54 -59 -166 -72 -251
-11 -68 -14 -74 -43 -86 -18 -7 -35 -11 -39 -9 -7 4 -9 392 -2 404 2 3 31 0
66 -7 35 -8 73 -14 86 -14z m-537 -169 c59 -31 84 -55 108 -107 26 -54 26 -97
2 -149 -43 -96 -176 -155 -281 -126 -22 6 -26 14 -33 75 -12 110 -78 233 -118
223 -11 -3 -19 -2 -19 2 0 15 67 71 110 91 60 28 168 23 231 -9z m777 -120
c42 -21 89 -68 79 -77 -4 -4 -13 -2 -20 5 -11 8 -23 7 -53 -5 -51 -22 -145
-46 -152 -39 -3 3 3 14 13 25 25 27 13 35 -24 16 -16 -9 -38 -16 -48 -16 -15
1 -15 4 6 21 28 23 20 39 -11 20 -12 -7 -32 -14 -46 -16 l-24 -2 29 29 c52 52
186 72 251 39z m-234 -107 c4 -11 13 -14 30 -10 15 4 28 0 37 -10 15 -19 61
-14 146 16 51 18 57 18 79 3 28 -18 29 -22 8 -51 -19 -27 -9 -45 10 -19 16 21
26 22 26 2 0 -9 -7 -18 -15 -21 -20 -8 -19 -26 1 -22 10 2 19 -2 21 -8 6 -18
-26 -44 -55 -44 -15 0 -56 -14 -91 -30 -44 -21 -68 -27 -75 -20 -18 18 -76 11
-123 -16 -36 -20 -48 -23 -54 -12 -14 22 -11 25 36 33 27 4 43 10 39 17 -6 10
-45 7 -76 -7 -15 -6 -18 -2 -18 18 0 38 -17 77 -37 84 -10 4 -35 17 -57 31
-37 23 -38 24 -18 38 21 15 120 42 158 43 12 1 25 -6 28 -15z m-158 -104 c44
-26 53 -36 56 -63 2 -21 -3 -40 -17 -55 l-20 -24 26 7 c31 8 47 -18 27 -43
-11 -13 -10 -14 7 -9 13 4 29 -1 45 -14 l25 -20 -100 4 c-55 2 -111 8 -125 12
l-25 8 23 -24 c20 -21 33 -24 127 -27 78 -3 118 0 154 12 64 21 81 20 81 -2 0
-66 -150 -100 -316 -71 -56 10 -65 15 -83 45 -11 19 -27 34 -35 34 -19 0 -26
22 -26 87 0 64 20 113 62 148 38 32 49 31 114 -5z m753 -60 c6 -28 11 -67 11
-86 l0 -36 -25 31 c-25 29 -132 90 -164 92 -9 1 9 5 39 9 31 4 69 14 85 22 43
23 42 23 54 -32z m-1069 -52 c27 -47 88 -196 105 -255 5 -18 0 -27 -27 -43
-18 -11 -48 -20 -65 -20 -22 0 -33 -5 -33 -14 0 -24 68 -76 99 -76 15 0 30 -2
33 -5 10 -10 -32 -149 -67 -222 l-34 -73 -54 0 -54 0 23 45 c12 26 28 84 35
135 12 82 15 91 37 97 14 3 20 9 14 15 -9 9 -61 1 -63 -11 -14 -109 -39 -214
-60 -247 l-21 -34 -98 0 c-92 0 -98 1 -93 19 3 11 18 24 33 30 l28 9 -19 74
c-11 40 -23 104 -28 141 l-7 68 33 15 c46 23 101 87 109 129 8 47 1 152 -13
166 -7 7 -10 -14 -10 -73 0 -99 -15 -135 -75 -178 -43 -31 -76 -37 -109 -20
-30 17 -23 48 15 71 28 16 37 29 45 70 6 28 11 67 11 88 0 21 9 59 21 85 l20
47 57 -6 c36 -4 75 -1 107 8 73 21 72 21 105 -35z m925 1 c141 -53 183 -189
91 -294 -41 -47 -104 -59 -75 -15 6 10 9 11 9 3 0 -32 52 -5 55 29 1 12 7 22
13 21 15 -4 35 35 28 52 -3 8 -1 15 4 17 4 2 6 15 3 30 -5 28 -29 40 -63 31
-25 -7 -26 -23 -2 -24 10 0 12 -3 5 -6 -7 -2 -13 -11 -13 -19 0 -20 -14 -17
-35 6 -17 18 -17 20 -2 14 13 -5 16 -2 11 9 -9 23 -34 30 -34 9 0 -10 -7 -28
-16 -40 -9 -13 -13 -26 -10 -29 3 -3 1 -12 -5 -20 -6 -7 -8 -13 -3 -13 5 0 -2
-7 -14 -16 -12 -8 -22 -24 -22 -35 0 -11 -7 -19 -16 -19 -8 0 -12 5 -8 11 4 7
-3 6 -17 -2 l-24 -13 25 -7 c14 -4 23 -8 20 -9 -22 -8 -41 -6 -49 4 -7 8 6 24
45 54 48 37 70 72 45 72 -5 0 -16 3 -25 6 -9 3 -16 1 -16 -6 0 -6 5 -8 10 -5
6 3 10 2 10 -4 0 -20 -23 -24 -37 -6 -7 11 -13 14 -13 9 0 -6 5 -15 11 -21 8
-8 1 -18 -28 -37 -66 -44 -142 -68 -212 -68 -71 1 -87 10 -97 58 -6 30 -5 31
52 44 76 18 112 52 115 105 3 60 0 77 -11 70 -7 -4 -6 -14 1 -28 12 -22 12
-22 -9 -3 l-21 19 22 17 c88 68 202 87 302 49z m-790 -146 c12 -21 16 -39 11
-58 -9 -36 -15 -28 -55 73 l-33 83 23 26 24 25 6 -59 c3 -33 14 -73 24 -90z
m440 127 c4 -6 -1 -7 -11 -3 -14 5 -16 3 -11 -11 6 -14 3 -16 -15 -10 -21 6
-22 5 -8 -11 13 -15 12 -19 -5 -31 -42 -31 -60 12 -21 51 26 25 60 33 71 15z
m-955 -64 c8 0 24 3 36 7 19 7 20 5 13 -50 -9 -73 -24 -113 -43 -113 -19 0
-56 -47 -56 -71 0 -11 -4 -19 -10 -19 -6 0 -10 50 -10 130 l0 130 28 -7 c15
-4 34 -7 42 -7z m1388 -138 c-7 -4 -9 -8 -4 -8 5 0 1 -9 -8 -19 -12 -13 -14
-21 -6 -26 8 -5 8 -11 -1 -21 -15 -18 -25 -18 -33 2 -4 10 -2 13 6 8 7 -5 8
-3 3 6 -5 8 -1 18 10 26 17 13 17 15 -10 41 -18 19 -29 24 -32 16 -6 -18 -23
-16 -23 2 0 16 30 20 46 6 5 -5 19 -12 31 -15 18 -6 21 -3 17 16 -4 22 -4 22
6 -1 8 -18 7 -26 -2 -33z m-638 -18 l56 0 15 -50 16 -50 -36 -10 c-100 -29
-191 -24 -191 10 0 10 6 21 13 23 9 4 9 8 -2 15 -13 9 -13 13 -1 27 11 14 11
18 1 25 -26 15 -2 28 36 19 21 -5 63 -9 93 -9z m528 -55 c-9 -9 -30 14 -23 25
6 9 10 8 17 -4 6 -10 8 -19 6 -21z m25 -12 c-7 -3 -13 -12 -14 -21 0 -11 -2
-13 -6 -4 -6 15 17 46 26 36 3 -4 0 -9 -6 -11z m-43 -7 c0 -2 -7 -7 -16 -10
-8 -3 -12 -2 -9 4 6 10 25 14 25 6z m-120 -21 c0 -11 -10 -15 -37 -14 l-38 1
35 13 c19 7 36 14 38 14 1 1 2 -6 2 -14z"/>
<path d="M1890 1675 c-13 -15 -7 -45 8 -45 16 0 34 29 28 45 -7 19 -20 19 -36
0z"/>
<path d="M2330 914 c0 -23 -3 -25 -25 -20 -30 8 -34 -10 -4 -19 27 -9 59 19
52 46 -8 28 -23 23 -23 -7z"/>
<path d="M2157 839 c-5 -18 -11 -20 -33 -15 -24 6 -26 5 -15 -8 25 -30 71 -13
71 26 0 25 -16 23 -23 -3z"/>
<path d="M2255 819 c-4 -6 -5 -13 -2 -16 7 -7 27 6 27 18 0 12 -17 12 -25 -2z"/>
<path d="M2338 744 c-27 -8 -48 -19 -48 -24 0 -6 -7 -10 -15 -10 -19 0 -19
-14 0 -30 12 -10 13 -16 4 -26 -6 -8 -7 -14 -2 -14 5 0 9 -13 8 -30 0 -16 -3
-30 -7 -30 -5 0 -8 -9 -8 -21 0 -11 5 -17 10 -14 6 3 10 -1 10 -9 0 -9 -5 -16
-11 -16 -5 0 -7 -5 -3 -11 3 -6 14 -9 24 -6 22 6 48 -9 36 -20 -5 -4 -11 -3
-13 3 -2 7 -13 10 -23 7 -21 -6 -28 -23 -9 -23 5 0 7 -4 4 -10 -3 -5 -1 -10 4
-10 6 0 11 5 11 11 0 5 5 7 10 4 13 -8 80 33 79 48 0 8 -2 8 -6 0 -6 -16 -33
-17 -33 -2 0 6 -8 8 -19 4 -29 -9 -57 36 -41 65 6 11 15 18 21 15 5 -4 9 -1 9
4 0 6 4 11 9 11 10 0 8 -22 -4 -61 -5 -15 -2 -19 17 -19 19 0 20 2 8 10 -13 9
-13 12 3 24 13 10 15 16 7 21 -8 5 -8 11 -2 17 12 12 54 -21 45 -36 -5 -7 -2
-7 8 0 8 6 25 15 38 19 20 6 23 4 18 -9 -9 -23 5 -20 27 5 13 16 15 24 6 33
-8 8 -14 7 -21 -4 -9 -12 -10 -11 -5 4 4 11 1 23 -6 27 -9 6 -10 11 -2 19 7 7
20 5 44 -6 58 -30 97 -26 91 9 0 4 4 7 9 7 6 0 10 -7 8 -16 -2 -10 3 -19 10
-21 23 -8 12 23 -18 52 l-30 29 4 -31 c3 -26 0 -30 -20 -30 -13 0 -24 4 -24 9
0 6 -7 7 -16 4 -10 -4 -13 -2 -8 6 5 8 2 9 -10 5 -14 -6 -17 -3 -12 9 4 12 2
15 -9 11 -19 -8 -29 10 -11 20 12 7 12 10 0 21 -12 11 -15 8 -20 -18 -6 -29
-7 -30 -20 -11 -8 11 -12 26 -9 33 8 19 -38 20 -97 2z m92 -34 c0 -5 -7 -10
-16 -10 -8 0 -12 5 -9 10 3 6 10 10 16 10 5 0 9 -4 9 -10z m22 -52 c-7 -7 -12
-8 -12 -2 0 14 12 26 19 19 2 -3 -1 -11 -7 -17z m-69 -18 c6 0 3 -8 -7 -17
-14 -13 -20 -15 -23 -5 -3 6 -9 9 -14 6 -17 -10 -39 4 -33 21 5 13 9 13 22 3
12 -11 17 -10 26 5 9 15 12 15 14 2 2 -8 9 -15 15 -15z m43 -26 c-5 -13 -10
-14 -18 -6 -6 6 -8 18 -4 28 5 13 10 14 18 6 6 -6 8 -18 4 -28z m28 -13 c3 -5
-3 -11 -15 -14 -16 -4 -18 -3 -8 9 13 16 16 17 23 5z"/>
<path d="M2546 705 c-3 -9 0 -15 9 -15 16 0 20 16 6 24 -5 3 -11 -1 -15 -9z"/>
<path d="M2262 600 c0 -14 2 -19 5 -12 2 6 2 18 0 25 -3 6 -5 1 -5 -13z"/>
<path d="M2240 561 c0 -13 -103 -61 -129 -61 -25 0 -27 -17 -5 -48 12 -17 23
-21 55 -19 21 2 39 0 39 -5 0 -5 9 -4 20 2 11 6 20 8 20 5 0 -3 9 -1 20 5 10
6 17 16 15 23 -4 10 -10 48 -14 95 -1 14 -21 17 -21 3z m-93 -88 c2 -6 -1 -14
-6 -18 -7 -4 -9 1 -5 12 5 16 4 16 -10 -1 -9 -11 -16 -17 -16 -14 0 4 -2 13
-5 21 -4 9 1 13 16 12 13 -1 24 -6 26 -12z m38 -19 c-23 -17 -32 -10 -15 11 7
8 17 12 23 8 6 -4 3 -11 -8 -19z"/>
</g>
</svg>
